<svg xmlns="http://www.w3.org/2000/svg" viewBox="0 0 200 200">
  <!-- Pelican -->
  <path fill="#8B4513" stroke="#8B4513" stroke-width="4" d="M50,70 Q80,100 120,80 Q160,60 120,40 Q80,20 50,40"/>
  <circle cx="70" cy="50" r="10" fill="#FFFFFF"/>
  <path fill="#FFFFFF" d="M70,55 Q75,60 80,55 Q85,50 80,45 Q75,40 70,45"/>
  <path fill="#FFFFFF" d="M60,45 Q70,35 80,45 Q90,55 70,55"/>
  <path fill="#FFFFFF" d="M90,55 Q100,45 110,55 Q120,65 100,75"/>
  
  <!-- Bicycle -->
  <path fill="none" stroke="#000000" stroke-width="4" d="M100,60 Q120,80 140,60 Q160,40 140,20 Q120,0 100,20 Q80,40 60,20"/>
  <path fill="#000000" d="M100,60 Q110,70 120,60"/>
  <path fill="#000000" d="M140,60 Q150,50 160,60"/>
  
  <!-- Pelican's Position on Bicycle -->
  <circle cx="110" cy="55" r="5" fill="#FFFFFF"/>
  
</svg>
