<svg width="400" height="400" xmlns="http://www.w3.org/2000/svg">
  <!-- Pelican -->
  <path fill="#228B22" d="M50,150 Q100,200 150,150 Q200,100 250,150 Q300,200 350,150 Q400,100 400,50 Q350,0 300,50 Q250,100 200,150 Q150,200 100,150 Q50,200 0,150"/>
  <!-- Bicycle -->
  <circle cx="250" cy="100" r="30" fill="#FFFFFF"/>
  <path stroke="#000000" stroke-width="5" d="M250,100 C260,120 280,120 290,100"/>
  <circle cx="260" cy="120" r="10" fill="#000000"/>
  <circle cx="280" cy="120" r="10" fill="#000000"/>
  <!-- Combining elements -->
  <g transform="translate(0, 20)">
    <path fill="none" stroke="#000000" stroke-width="3" d="M100,200 C120,220 140,220 160,200"/>
    <path fill="none" stroke="#000000" stroke-width="3" d="M140,220 C160,240 180,240 200,220"/>
  </g>
</svg>
