<svg width="400" height="400" xmlns="http://www.w3.org/2000/svg">
  <!-- Background -->
  <rect x="0" y="0" width="400" height="400" fill="#F0E68C" /> <!-- Light Cornflower Blue -->

  <!-- Bicycle -->
  <g id="bicycle">
    <!-- Frame -->
    <ellipse cx="200" cy="100" rx="50" ry="30" fill="#8B4513" /> <!-- Brown -->
    <ellipse cx="200" cy="120" rx="30" ry="20" fill="#8B4513" /> <!-- Smaller Wheel -->
    <ellipse cx="220" cy="120" rx="30" ry="20" fill="#8B4513" /> <!-- Smaller Wheel -->
    
    <!-- Pedals -->
    <circle cx="185" cy="110" r="5" fill="#FFFFFF" />
    <circle cx="215" cy="110" r="5" fill="#FFFFFF" />
    
    <!-- Handlebars -->
    <path d="M180,130 Q190,150 200,130" stroke="#000000" stroke-width="3" fill="none" />
    
    <!-- Seat -->
    <ellipse cx="200" cy="160" rx="20" ry="10" fill="#8B4513" />
  </g>

  <!-- Pelican -->
  <g id="pelican">
    <!-- Body -->
    <path d="M180,180 Q190,200 200,180" stroke="#8B4513" stroke-width="5" fill="#F5DEB3" /> <!-- Brown -->
    <circle cx="190" cy="190" r="10" fill="#8B4513" /> <!-- Head -->
    
    <!-- Wings -->
    <path d="M190,190 Q200,210 210,190" stroke="#8B4513" stroke-width="3" fill="none" /> <!-- Left Wing -->
    <path d="M190,190 Q180,200 170,190" stroke="#8B4513" stroke-width="3" fill="none" /> <!-- Right Wing -->
    
    <!-- Feet -->
    <circle cx="185" cy="210" r="5" fill="#8B4513" />
    <circle cx="215" cy="210" r="5" fill="#8B4513" />
  </g>

  <!-- Interaction -->
  <path d="M190,120 Q195,130 200,120" stroke="#000000" stroke-width="3" fill="none" /> <!-- Bicycle Path for Pelican -->
</svg>
