<svg width="400" height="300" xmlns="http://www.w3.org/2000/svg">
  <!-- Background -->
  <rect x="0" y="0" width="400" height="300" fill="#87CEEB"/>

  <!-- Pelican -->
  <path d="M100,150 Q200,250 300,150 T400,150" fill="#FFFFFF" stroke="#555555" stroke-width="4"/>
  <circle cx="150" cy="130" r="20" fill="#FFFFFF" stroke="#555555" stroke-width="2"/>
  <path d="M120,150 Q180,190 240,150" fill="#FFFFFF" stroke="#555555" stroke-width="2"/>
  <path d="M80,150 Q110,170 140,150" fill="#FFFFFF" stroke="#555555" stroke-width="2"/>
  <path d="M200,150 Q250,200 300,150" fill="#FFFFFF" stroke="#555555" stroke-width="2"/>
  <path d="M180,150 Q210,170 240,150" fill="#FFFFFF" stroke="#555555" stroke-width="2"/>
  
  <!-- Bicycle -->
  <ellipse cx="260" cy="160" rx="40" ry="20" fill="#000000"/>
  <ellipse cx="260" cy="190" rx="15" ry="10" fill="#000000"/>
  <rect x="245" y="180" width="20" height="10" fill="#000000"/>
  <path d="M260,160 Q260,170 260,180" stroke="#000000" stroke-width="3"/>
  <path d="M260,180 Q260,190 260,200" stroke="#000000" stroke-width="3"/>
  
  <!-- Wheels -->
  <circle cx="260" cy="130" r="10" fill="#000000"/>
  <circle cx="260" cy="220" r="10" fill="#000000"/>
</svg>
